<svg width="24" height="24" viewBox="0 0 24 24" fill="none" xmlns="http://www.w3.org/2000/svg">
<path d="M20.7071 4.70711L16.4142 9H19C19.5523 9 20 9.44772 20 10C20 10.5523 19.5523 11 19 11H14C13.8644 11 13.7351 10.973 13.6172 10.9241C13.4993 10.8753 13.3888 10.803 13.2929 10.7071C13.197 10.6112 13.1247 10.5007 13.0759 10.3828C13.027 10.2649 13 10.1354 13 9.99983V5C13 4.44771 13.4477 4 14 4C14.5523 4 15 4.44772 15 5V7.58579L19.2929 3.29289C19.6834 2.90237 20.3166 2.90237 20.7071 3.29289C21.0976 3.68342 21.0976 4.31658 20.7071 4.70711Z" fill="white"/>
<path d="M3.29289 19.2929L7.58579 15L5 15C4.44772 15 4 14.5523 4 14C4 13.4477 4.44772 13 5 13L10 13C10.1356 13 10.2649 13.027 10.3828 13.0759C10.5007 13.1247 10.6112 13.197 10.7071 13.2929C10.803 13.3888 10.8753 13.4993 10.9241 13.6172C10.973 13.7351 11 13.8646 11 14.0002L11 19C11 19.5523 10.5523 20 10 20C9.44772 20 9 19.5523 9 19L9 16.4142L4.70711 20.7071C4.31658 21.0976 3.68342 21.0976 3.29289 20.7071C2.90237 20.3166 2.90237 19.6834 3.29289 19.2929Z" fill="white"/>
</svg>
