<svg width="24" height="24" viewBox="0 0 24 24" fill="none" xmlns="http://www.w3.org/2000/svg">
<path d="M13.2929 9.29289L17.5858 5L15 5C14.4477 5 14 4.55228 14 4C14 3.44772 14.4477 3 15 3H20C20.1356 3 20.2649 3.02699 20.3828 3.07588C20.5007 3.12468 20.6112 3.19702 20.7071 3.29289C20.803 3.38877 20.8753 3.49927 20.9241 3.61722C20.973 3.73512 21 3.86458 21 4.00017V9C21 9.55229 20.5523 10 20 10C19.4477 10 19 9.55228 19 9V6.41421L14.7071 10.7071C14.3166 11.0976 13.6834 11.0976 13.2929 10.7071C12.9024 10.3166 12.9024 9.68342 13.2929 9.29289Z" fill="white"/>
<path d="M10.7071 14.7071L6.41421 19H9C9.55229 19 10 19.4477 10 20C10 20.5523 9.55228 21 9 21H4C3.86441 21 3.73512 20.973 3.61722 20.9241C3.49927 20.8753 3.38877 20.803 3.29289 20.7071C3.19702 20.6112 3.12468 20.5007 3.07588 20.3828C3.02699 20.2649 3 20.1354 3 19.9998V15C3 14.4477 3.44772 14 4 14C4.55228 14 5 14.4477 5 15V17.5858L9.29289 13.2929C9.68342 12.9024 10.3166 12.9024 10.7071 13.2929C11.0976 13.6834 11.0976 14.3166 10.7071 14.7071Z" fill="white"/>
</svg>
