<svg width="434" height="326" viewBox="0 0 434 326" fill="none" xmlns="http://www.w3.org/2000/svg">
<path fill-rule="evenodd" clip-rule="evenodd" d="M331.239 0.160715C402.168 -2.83642 469.108 36.4806 520.854 85.083C568.547 129.878 580.953 196.255 604.862 257.161C630.697 322.974 676.903 384.98 666.002 454.837C654.335 529.608 605.117 594.322 545.067 640.374C483.96 687.236 406.462 728.042 331.239 711.564C258.75 695.685 232.035 608.356 176.13 559.556C127.572 517.169 55.2725 502.688 26.1051 445.21C-5.11481 383.687 -8.0478 308.312 15.7802 243.567C39.1573 180.047 99.3323 141.978 152.92 100.63C208.29 57.9072 261.365 3.1133 331.239 0.160715Z" fill="#EDF4FA"/>
</svg>
