<svg width="36" height="36" viewBox="0 0 36 36" fill="none" xmlns="http://www.w3.org/2000/svg">
<rect width="36" height="36" rx="18" fill="white"/>
<path d="M19 22.2857V21.2857H17V22.2857H19ZM17 22.3V23.3H19V22.3H17ZM17 13V18.7143H19V13H17ZM17 22.2857V22.3H19V22.2857H17ZM18 27C13.0294 27 9 22.9706 9 18H7C7 24.0751 11.9249 29 18 29V27ZM27 18C27 22.9706 22.9706 27 18 27V29C24.0751 29 29 24.0751 29 18H27ZM18 9C22.9706 9 27 13.0294 27 18H29C29 11.9249 24.0751 7 18 7V9ZM18 7C11.9249 7 7 11.9249 7 18H9C9 13.0294 13.0294 9 18 9V7Z" fill="#FF0000"/>
</svg>
