<svg width="54" height="54" viewBox="0 0 54 54" fill="none" xmlns="http://www.w3.org/2000/svg">
<path d="M28.4997 37.5711V36.0711H25.4997V37.5711H28.4997ZM25.4997 37.6063V39.1063H28.4997V37.6063H25.4997ZM25.4997 14.6663V28.7616H28.4997V14.6663H25.4997ZM25.4997 37.5711V37.6063H28.4997V37.5711H25.4997ZM26.9997 50.1663C14.2051 50.1663 3.83301 39.7943 3.83301 26.9997H0.833008C0.833008 41.4511 12.5482 53.1663 26.9997 53.1663V50.1663ZM50.1663 26.9997C50.1663 39.7943 39.7943 50.1663 26.9997 50.1663V53.1663C41.4511 53.1663 53.1663 41.4511 53.1663 26.9997H50.1663ZM26.9997 3.83301C39.7943 3.83301 50.1663 14.2051 50.1663 26.9997H53.1663C53.1663 12.5482 41.4511 0.833008 26.9997 0.833008V3.83301ZM26.9997 0.833008C12.5482 0.833008 0.833008 12.5482 0.833008 26.9997H3.83301C3.83301 14.2051 14.2051 3.83301 26.9997 3.83301V0.833008Z" fill="#F35454"/>
</svg>
