<svg width="22" height="22" viewBox="0 0 22 22" fill="none" xmlns="http://www.w3.org/2000/svg">
<path d="M21.6665 11.245C21.6665 10.5198 21.6074 9.79081 21.4794 9.07697H11.2141V13.1849H17.0915C16.9734 13.8378 16.72 14.4612 16.3464 15.0181C15.9729 15.575 15.4867 16.054 14.9168 16.4266V19.0917H18.4236C20.4821 17.2332 21.6655 14.4905 21.6655 11.245H21.6665Z" fill="#4285F4"/>
<path d="M11.2146 21.6672C14.1493 21.6672 16.6243 20.7224 18.4279 19.0921L14.9212 16.427C13.9465 17.0774 12.6864 17.4457 11.2195 17.4457C8.3802 17.4457 5.97312 15.5683 5.10972 13.0433H1.49072V15.7917C3.33862 19.3941 7.10036 21.6672 11.2146 21.6672Z" fill="#34A853"/>
<path d="M5.1058 13.0441C4.64992 11.718 4.64992 10.286 5.1058 8.95987V6.2124H1.49074C0.72923 7.70285 0.333252 9.34137 0.333252 11.002C0.333252 12.6626 0.72923 14.3012 1.49074 15.7916L5.1058 13.0441Z" fill="#FBBC04"/>
<path d="M11.2146 4.55451C11.9856 4.54342 12.7513 4.67898 13.4676 4.95341C14.184 5.22783 14.8369 5.6357 15.3888 6.15357L18.4959 3.10788C16.5404 1.30164 13.9258 0.305578 11.2146 0.333901C7.10036 0.333901 3.33862 2.6061 1.49072 6.21322L5.10578 8.95974C5.96524 6.43192 8.37627 4.55451 11.2146 4.55451Z" fill="#EA4335"/>
</svg>
