<svg xmlns="http://www.w3.org/2000/svg" width="24" height="18" fill="none" style=""><rect id="backgroundrect" width="100%" height="100%" x="0" y="0" fill="none" stroke="none"/>




<g class="currentLayer" style=""><title>Layer 1</title><path d="M6 4H8V6H10V8H8V10H6V8H4V6H6V4Z" fill="#000000" id="svg_1" class="" fill-opacity="1"/><path d="M14.5 7C15.3284 7 16 6.32843 16 5.5C16 4.67157 15.3284 4 14.5 4C13.6716 4 13 4.67157 13 5.5C13 6.32843 13.6716 7 14.5 7Z" fill="#000000" id="svg_2" class="" fill-opacity="1"/><path d="M20 8.5C20 9.32843 19.3284 10 18.5 10C17.6716 10 17 9.32843 17 8.5C17 7.67157 17.6716 7 18.5 7C19.3284 7 20 7.67157 20 8.5Z" fill="#000000" id="svg_3" class="" fill-opacity="1"/><path fill-rule="evenodd" clip-rule="evenodd" d="M16.5176 14.8378C15.7611 13.797 15.0686 12.8442 14.2082 12.6094H9.79175C8.93143 12.8442 8.23889 13.797 7.48241 14.8378C6.31901 16.4384 5.00437 18.247 2.6956 17.9721C-0.0336676 17.6471 -1.67128 6.05433 2.69556 1.28721C4.35685 -0.0731809 5.07013 -0.0533707 8.21243 0.0339013C9.20005 0.0613307 10.4276 0.0954247 12 0.0954247C13.5724 0.0954247 14.7999 0.0613309 15.7876 0.0339013C18.9299 -0.0533707 19.6432 -0.0731809 21.3044 1.28721C25.6713 6.05433 24.0337 17.6471 21.3044 17.9721C18.9956 18.247 17.681 16.4384 16.5176 14.8378ZM2.0312 11.1798C1.8408 7.89223 2.5111 4.54915 4.07927 2.74036C4.69698 2.24792 4.97696 2.14099 5.28705 2.0796C5.79259 1.97951 6.48618 1.98673 8.15691 2.03313L8.1606 2.03323C9.14976 2.06071 10.3999 2.09542 12 2.09542C13.6001 2.09542 14.8502 2.06071 15.8394 2.03323L15.8431 2.03313C17.5138 1.98673 18.2074 1.97951 18.7129 2.0796C19.023 2.14099 19.303 2.24792 19.9207 2.74035C21.4889 4.54915 22.1592 7.89223 21.9688 11.1798C21.875 12.7989 21.58 14.2109 21.2057 15.1739C21.048 15.5799 20.8996 15.8448 20.7902 15.999C20.415 15.9864 20.0971 15.8431 19.7404 15.5542C19.2187 15.1315 18.7499 14.5073 18.1354 13.6619L18.0992 13.612C17.7478 13.1284 17.3209 12.5409 16.8565 12.0487C16.3808 11.5447 15.6852 10.9394 14.7348 10.68L14.4763 10.6094H9.52374L9.26518 10.68C8.31481 10.9394 7.61921 11.5447 7.14354 12.0487C6.67912 12.5409 6.25224 13.1284 5.90085 13.612L5.86462 13.6619C5.25011 14.5073 4.78132 15.1315 4.25955 15.5542C3.90293 15.8431 3.58499 15.9864 3.20983 15.999C3.10041 15.8448 2.95204 15.5799 2.79426 15.1739C2.42002 14.2109 2.12496 12.7989 2.0312 11.1798Z" fill="#000000" id="svg_4" class="" fill-opacity="1"/></g></svg>