<svg width="32" height="32" viewBox="0 0 32 32" fill="none" xmlns="http://www.w3.org/2000/svg">
<path fill-rule="evenodd" clip-rule="evenodd" d="M16 0C7.16364 0 0 7.16364 0 16C0 24.8364 7.16364 32 16 32C24.8364 32 32 24.8364 32 16C32 7.16364 24.8364 0 16 0ZM15.2727 7.27273C14.887 7.27273 14.517 7.42597 14.2442 7.69875C13.9714 7.97153 13.8182 8.3415 13.8182 8.72727C13.8182 9.11304 13.9714 9.48301 14.2442 9.75579C14.517 10.0286 14.887 10.1818 15.2727 10.1818H16C16.3858 10.1818 16.7557 10.0286 17.0285 9.75579C17.3013 9.48301 17.4545 9.11304 17.4545 8.72727C17.4545 8.3415 17.3013 7.97153 17.0285 7.69875C16.7557 7.42597 16.3858 7.27273 16 7.27273H15.2727ZM13.0909 13.0909C12.7051 13.0909 12.3352 13.2442 12.0624 13.5169C11.7896 13.7897 11.6364 14.1597 11.6364 14.5455C11.6364 14.9312 11.7896 15.3012 12.0624 15.574C12.3352 15.8468 12.7051 16 13.0909 16H14.5455V20.3636H13.0909C12.7051 20.3636 12.3352 20.5169 12.0624 20.7897C11.7896 21.0624 11.6364 21.4324 11.6364 21.8182C11.6364 22.204 11.7896 22.5739 12.0624 22.8467C12.3352 23.1195 12.7051 23.2727 13.0909 23.2727H18.9091C19.2949 23.2727 19.6648 23.1195 19.9376 22.8467C20.2104 22.5739 20.3636 22.204 20.3636 21.8182C20.3636 21.4324 20.2104 21.0624 19.9376 20.7897C19.6648 20.5169 19.2949 20.3636 18.9091 20.3636H17.4545V14.5455C17.4545 14.1597 17.3013 13.7897 17.0285 13.5169C16.7557 13.2442 16.3858 13.0909 16 13.0909H13.0909Z" fill="white"/>
</svg>
