<svg width="16" height="17" viewBox="0 0 16 17" fill="none" xmlns="http://www.w3.org/2000/svg">
<rect x="6.99976" y="14" width="2" height="3" rx="1" fill="white"/>
<rect x="4.99976" y="1.00003" width="6" height="11" rx="3" fill="white"/>
<path d="M13.1861 9.00003C13.6355 9.00003 14.0054 9.36596 13.9447 9.8112C13.8752 10.3203 13.7405 10.8194 13.543 11.2961C13.2415 12.0241 12.7995 12.6855 12.2424 13.2427C11.6852 13.7998 11.0238 14.2418 10.2959 14.5433C9.5679 14.8448 8.78769 15 7.99976 15C7.21182 15 6.43161 14.8448 5.70366 14.5433C4.9757 14.2418 4.31427 13.7998 3.75711 13.2427C3.19996 12.6855 2.75801 12.0241 2.45648 11.2961C2.25901 10.8194 2.1243 10.3203 2.05484 9.8112C1.99409 9.36596 2.36404 9.00003 2.81341 9.00003C3.26278 9.00003 3.61942 9.36739 3.70255 9.80901C3.75819 10.1045 3.84429 10.3942 3.95992 10.6734C4.17967 11.2039 4.50176 11.6859 4.9078 12.092C5.31384 12.498 5.79588 12.8201 6.3264 13.0399C6.85692 13.2596 7.42553 13.3727 7.99976 13.3727C8.57399 13.3727 9.14259 13.2596 9.67311 13.0399C10.2036 12.8201 10.6857 12.498 11.0917 12.092C11.4978 11.6859 11.8198 11.2039 12.0396 10.6734C12.1552 10.3942 12.2413 10.1045 12.297 9.80901C12.3801 9.36739 12.7367 9.00003 13.1861 9.00003Z" fill="white"/>
<rect x="0.185547" y="13.0567" width="17.4346" height="2" transform="rotate(-45 0.185547 13.0567)" fill="black"/>
<rect x="1.59973" y="14.4709" width="17.4346" height="2" transform="rotate(-45 1.59973 14.4709)" fill="white"/>
</svg>
