<svg width="22" height="22" viewBox="0 0 22 22" fill="none" xmlns="http://www.w3.org/2000/svg">
<path d="M14.2085 11C14.2075 11.8506 13.8692 12.6661 13.2677 13.2675C12.6662 13.869 11.8508 14.2073 11.0002 14.2084C10.1496 14.2073 9.33408 13.869 8.73261 13.2675C8.13114 12.6661 7.79279 11.8506 7.79178 11C7.79279 10.1494 8.13114 9.33389 8.73261 8.73242C9.33408 8.13095 10.1496 7.7926 11.0002 7.79159C11.8508 7.7926 12.6662 8.13095 13.2677 8.73242C13.8692 9.33389 14.2075 10.1494 14.2085 11ZM11.0002 0.333313C5.11826 0.333313 0.333496 5.11807 0.333496 11C0.333496 16.8819 5.11826 21.6666 11.0002 21.6666C13.1445 21.6698 15.2394 21.023 17.0085 19.8114L17.039 19.7901L15.6021 18.12L15.5777 18.1352C14.2129 19.0144 12.6236 19.4813 11.0002 19.48C6.32435 19.48 2.52016 15.6758 2.52016 11C2.52016 6.32417 6.32435 2.51998 11.0002 2.51998C15.676 2.51998 19.4802 6.32417 19.4802 11C19.4802 11.6057 19.4124 12.219 19.2805 12.8224C19.0124 13.9234 18.2413 14.2602 17.663 14.216C17.0809 14.1687 16.3998 13.7543 16.3952 12.7394V11C16.3938 9.56955 15.8249 8.19812 14.8135 7.18666C13.802 6.1752 12.4306 5.60634 11.0002 5.60493C9.56974 5.60634 8.19831 6.1752 7.18685 7.18666C6.17539 8.19812 5.60653 9.56955 5.60512 11C5.60607 11.8875 5.82578 12.7612 6.2448 13.5436C6.66382 14.3261 7.26923 14.9932 8.00747 15.4859C8.74571 15.9786 9.59401 16.2818 10.4773 16.3686C11.3607 16.4554 12.2517 16.3232 13.0718 15.9836C13.7281 15.7102 14.3233 15.3087 14.8226 14.8026C15.1124 15.2571 15.5042 15.6377 15.9669 15.9143C16.4295 16.1908 16.9503 16.3557 17.4878 16.3958C18.3653 16.4635 19.2374 16.208 19.9396 15.6773C20.5788 15.1912 21.0565 14.4895 21.3202 13.6461C21.3621 13.5097 21.4398 13.1981 21.4398 13.1958L21.4421 13.1844C21.5975 12.5078 21.6668 11.8335 21.6668 11C21.6668 5.11807 16.8821 0.333313 11.0002 0.333313" fill="#FF9E00"/>
</svg>
