<svg width="16" height="22" viewBox="0 0 16 22" fill="none" xmlns="http://www.w3.org/2000/svg">
<path fill-rule="evenodd" clip-rule="evenodd" d="M7.9996 7.75347C8.53005 7.75347 9.03877 7.55803 9.41385 7.21014C9.78893 6.86226 9.99965 6.39042 9.99965 5.89843C9.99965 5.40645 9.78893 4.93461 9.41385 4.58672C9.03877 4.23883 8.53005 4.04339 7.9996 4.04339C7.46916 4.04339 6.96044 4.23883 6.58536 4.58672C6.21027 4.93461 5.99956 5.40645 5.99956 5.89843C5.99956 6.39042 6.21027 6.86226 6.58536 7.21014C6.96044 7.55803 7.46916 7.75347 7.9996 7.75347ZM7.9996 11.4636C9.59094 11.4636 11.1171 10.8772 12.2423 9.83357C13.3676 8.7899 13.9998 7.37439 13.9998 5.89843C13.9998 4.42247 13.3676 3.00696 12.2423 1.9633C11.1171 0.919636 9.59094 0.333313 7.9996 0.333313C6.40827 0.333313 4.88211 0.919636 3.75686 1.9633C2.63161 3.00696 1.99946 4.42247 1.99946 5.89843C1.99946 7.37439 2.63161 8.7899 3.75686 9.83357C4.88211 10.8772 6.40827 11.4636 7.9996 11.4636ZM0.400419 12.2046C0.718984 11.8113 1.19294 11.5515 1.71803 11.4823C2.24313 11.413 2.77638 11.5401 3.20049 11.8355C4.58375 12.8015 6.26907 13.3225 8.0006 13.3195C9.73144 13.3221 11.416 12.8011 12.7987 11.8355C13.0088 11.6892 13.2478 11.5827 13.5023 11.5221C13.7567 11.4615 14.0215 11.448 14.2815 11.4823C14.5416 11.5167 14.7918 11.5981 15.0179 11.7222C15.244 11.8462 15.4416 12.0103 15.5993 12.2051C15.757 12.3999 15.8718 12.6217 15.9371 12.8576C16.0025 13.0936 16.0171 13.3392 15.9801 13.5804C15.943 13.8216 15.8552 14.0537 15.7215 14.2634C15.5878 14.4731 15.4108 14.6563 15.2008 14.8026C14.0449 15.6085 12.7412 16.2135 11.3527 16.5881L13.4137 18.4988C13.789 18.8466 14 19.3185 14.0002 19.8106C14.0003 20.3027 13.7898 20.7747 13.4147 21.1227C13.0397 21.4708 12.531 21.6665 12.0004 21.6666C11.4699 21.6668 10.961 21.4715 10.5857 21.1237L7.9996 18.7233L5.41354 21.1218C5.03633 21.4597 4.53111 21.6467 4.0067 21.6425C3.4823 21.6383 2.98066 21.4432 2.60984 21.0992C2.23901 20.7553 2.02867 20.29 2.02411 19.8036C2.01955 19.3172 2.22115 18.8487 2.58547 18.4988L4.64652 16.5872C3.25801 16.2122 1.95425 15.6069 0.798428 14.8008C0.374805 14.5055 0.0948506 14.0663 0.0200389 13.5797C-0.0547727 13.0932 0.0816747 12.5989 0.399419 12.2056L0.400419 12.2046Z" fill="white"/>
</svg>
