<svg width="24" height="24" viewBox="0 0 24 24" fill="none" xmlns="http://www.w3.org/2000/svg">
<path d="M11.9997 5.72887C10.7284 5.72892 9.48712 6.11541 8.44051 6.83708C7.3939 7.55876 6.59138 8.58152 6.13938 9.76976C5.68737 10.958 5.60723 12.2555 5.90958 13.4904C6.21193 14.7252 6.88249 15.8389 7.83234 16.6839C8.78218 17.5289 9.96644 18.0652 11.2281 18.2217C12.4897 18.3782 13.7691 18.1475 14.8966 17.5602C16.0241 16.9729 16.9465 16.0567 17.5414 14.9332C18.1362 13.8097 18.3756 12.5318 18.2276 11.2692C18.1687 10.7606 18.5372 10.2694 19.0492 10.2694C19.4946 10.2694 19.8864 10.579 19.94 11.0218C20.1666 12.8614 19.7473 14.7226 18.7539 16.2875C17.7605 17.8523 16.2546 19.0236 14.4934 19.6013C12.7322 20.179 10.8251 20.1272 9.09786 19.4548C7.37061 18.7824 5.93044 17.5311 5.02339 15.9147C4.11634 14.2983 3.79871 12.4171 4.12477 10.5925C4.45082 8.76791 5.40032 7.11314 6.81105 5.91091C8.22178 4.70869 10.0062 4.03363 11.8594 4.00105C13.7126 3.96848 15.5197 4.58042 16.9718 5.73233V5.29644C16.9718 5.06695 17.0629 4.84686 17.2252 4.68458C17.3875 4.52231 17.6076 4.43114 17.8371 4.43114C18.0666 4.43114 18.2867 4.52231 18.4489 4.68458C18.6112 4.84686 18.7024 5.06695 18.7024 5.29644V7.62984L18.7318 7.67481H18.7024V7.89103C18.7024 8.1204 18.6112 8.34038 18.4491 8.50258C18.2869 8.66477 18.0669 8.75589 17.8375 8.75589H15.2429C15.0135 8.75589 14.7936 8.66477 14.6314 8.50258C14.4692 8.34038 14.378 8.1204 14.378 7.89103C14.378 7.66165 14.4692 7.44167 14.6314 7.27948C14.7936 7.11728 15.0135 7.02616 15.2429 7.02616H15.8189C14.7244 6.18308 13.3812 5.72683 11.9997 5.72887Z" fill="white"/>
</svg>
