<svg width="12" height="16" viewBox="0 0 12 16" fill="none" xmlns="http://www.w3.org/2000/svg">
<rect x="4.99976" y="13" width="2" height="3" rx="1" fill="white"/>
<rect x="2.99976" width="6" height="11" rx="3" fill="white"/>
<path d="M11.1861 8C11.6355 8 12.0054 8.36593 11.9447 8.81117C11.8752 9.32022 11.7405 9.81937 11.543 10.2961C11.2415 11.0241 10.7995 11.6855 10.2424 12.2426C9.68524 12.7998 9.02381 13.2417 8.29586 13.5433C7.5679 13.8448 6.78769 14 5.99976 14C5.21182 14 4.43161 13.8448 3.70366 13.5433C2.9757 13.2417 2.31427 12.7998 1.75711 12.2426C1.19996 11.6855 0.758007 11.0241 0.456478 10.2961C0.259009 9.81937 0.124301 9.32022 0.0548417 8.81117C-0.00591145 8.36593 0.364042 8 0.813413 8V8C1.26278 8 1.61942 8.36736 1.70255 8.80898C1.75819 9.10449 1.84429 9.3942 1.95992 9.67335C2.17967 10.2039 2.50176 10.6859 2.9078 11.092C3.31384 11.498 3.79588 11.8201 4.3264 12.0398C4.85692 12.2596 5.42553 12.3727 5.99976 12.3727C6.57399 12.3727 7.14259 12.2596 7.67311 12.0398C8.20363 11.8201 8.68567 11.498 9.09171 11.092C9.49775 10.6859 9.81984 10.2039 10.0396 9.67335C10.1552 9.3942 10.2413 9.10449 10.297 8.80898C10.3801 8.36736 10.7367 8 11.1861 8V8Z" fill="white"/>
</svg>
