<svg width="24" height="14" viewBox="0 0 24 14" fill="none" xmlns="http://www.w3.org/2000/svg">
<path fill-rule="evenodd" clip-rule="evenodd" d="M3.52582 0.333313H0.900225C0.150045 0.333313 0 0.68419 0 1.03507C0 1.66665 0.890145 4.89472 4.14465 9.17542C6.31432 12.0526 9.37117 13.6666 12.1528 13.6666C13.8218 13.6666 14.0283 13.3158 14.0283 12.6842V10.5088C14.0283 9.807 14.1864 9.66665 14.7148 9.66665C15.1043 9.66665 15.7719 9.87717 17.3296 11.2807C19.1099 12.8947 19.4034 13.6666 20.4047 13.6666H23.0303C23.7805 13.6666 24.1556 13.3158 23.9392 12.614C23.7025 11.9123 22.8525 10.9298 21.7246 9.73682C21.1126 9.03507 20.1947 8.33331 19.9165 7.98244C19.5271 7.49121 19.6384 7.28068 19.9165 6.85963C19.9165 6.85963 23.1154 2.6491 23.4493 1.24559C23.6161 0.68419 23.4493 0.333313 22.6552 0.333313H20.0296C19.3621 0.333313 19.0543 0.68419 18.8873 1.03507C18.8873 1.03507 17.5522 4.05261 15.6607 6.01752C15.0487 6.6491 14.7705 6.78945 14.4367 6.78945C14.2698 6.78945 14.0282 6.6491 14.0282 6.0877V1.24559C14.0282 0.614015 13.8345 0.333313 13.2781 0.333313H9.15209C8.73494 0.333313 8.484 0.614015 8.484 0.894717C8.484 1.45612 9.42974 1.59647 9.52724 3.28068V6.9298C9.52724 7.70174 9.37409 7.84209 9.04035 7.84209C8.15025 7.84209 5.98507 4.75437 4.70092 1.31577C4.4493 0.614015 4.19685 0.333313 3.52582 0.333313Z" fill="white"/>
</svg>
