<svg width="11" height="22" viewBox="0 0 11 22" fill="none" xmlns="http://www.w3.org/2000/svg">
<path d="M10.6735 0.333313H7.28692C3.95898 0.333313 1.30303 2.7512 1.30303 7.44442C1.30303 10.2604 2.50301 12.3361 4.93923 13.3592L0.392115 21.2116C0.244918 21.4682 0.392115 21.6666 0.631044 21.6666H2.7398C2.91793 21.6666 3.0374 21.6107 3.09606 21.4693L7.36265 13.6673H8.5765L8.56796 21.4682C8.56796 21.5537 8.65756 21.6666 8.77596 21.6666H10.7631C10.9413 21.6666 10.9999 21.5811 10.9999 21.4408V0.618415C10.9999 0.418844 10.8805 0.333313 10.6735 0.333313ZM8.5765 11.8876H7.12052C5.66668 11.8876 3.72645 10.8569 3.72645 7.44442C3.72645 3.88722 5.30829 2.11191 7.12052 2.11191H8.5733V11.8887L8.5765 11.8876Z" fill="#FF0000"/>
</svg>
