<svg width="16" height="16" viewBox="0 0 16 16" fill="none" xmlns="http://www.w3.org/2000/svg">
<path fill-rule="evenodd" clip-rule="evenodd" d="M8.00002 0C5.82733 0 5.5549 0.00920999 4.70161 0.0481429C3.8501 0.0869806 3.26855 0.222229 2.75969 0.419974C2.23362 0.624419 1.78748 0.897967 1.34272 1.34271C0.897975 1.78745 0.624429 2.23363 0.419986 2.7597C0.22223 3.26856 0.0869941 3.8501 0.0481304 4.70161C0.0092043 5.5549 0 5.82733 0 8.00002C0 10.1727 0.0092043 10.4451 0.0481304 11.2984C0.0869941 12.1499 0.22223 12.7314 0.419986 13.2403C0.624429 13.7664 0.897975 14.2125 1.34272 14.6573C1.78748 15.102 2.23362 15.3756 2.75969 15.58C3.26855 15.7778 3.8501 15.913 4.70161 15.9519C5.5549 15.9908 5.82733 16 8.00002 16C10.1727 16 10.4451 15.9908 11.2984 15.9519C12.1499 15.913 12.7314 15.7778 13.2403 15.58C13.7664 15.3756 14.2125 15.102 14.6573 14.6573C15.102 14.2125 15.3756 13.7664 15.58 13.2403C15.7778 12.7314 15.913 12.1499 15.9519 11.2984C15.9908 10.4451 16 10.1727 16 8.00002C16 5.82733 15.9908 5.5549 15.9519 4.70161C15.913 3.8501 15.7778 3.26856 15.58 2.7597C15.3756 2.23363 15.102 1.78745 14.6573 1.34271C14.2125 0.897967 13.7664 0.624419 13.2403 0.419974C12.7314 0.222229 12.1499 0.0869806 11.2984 0.0481429C10.4451 0.00920999 10.1727 0 8.00002 0ZM8.00002 1.44144C10.1361 1.44144 10.3891 1.4496 11.2327 1.48809C12.0127 1.52366 12.4363 1.65398 12.7182 1.76354C13.0916 1.90867 13.3581 2.08202 13.638 2.36195C13.918 2.64191 14.0913 2.90841 14.2365 3.28183C14.346 3.56373 14.4763 3.98732 14.5119 4.76731C14.5504 5.61088 14.5586 5.86391 14.5586 8.00002C14.5586 10.1361 14.5504 10.3891 14.5119 11.2327C14.4763 12.0127 14.346 12.4363 14.2365 12.7182C14.0913 13.0916 13.918 13.3581 13.638 13.638C13.3581 13.918 13.0916 14.0913 12.7182 14.2365C12.4363 14.346 12.0127 14.4763 11.2327 14.5119C10.3892 14.5504 10.1362 14.5586 8.00002 14.5586C5.86375 14.5586 5.61079 14.5504 4.76731 14.5119C3.98732 14.4763 3.56373 14.346 3.28183 14.2365C2.90841 14.0913 2.64192 13.918 2.36198 13.638C2.08204 13.3581 1.90866 13.0916 1.76354 12.7182C1.65398 12.4363 1.52367 12.0127 1.48808 11.2327C1.44959 10.3891 1.44144 10.1361 1.44144 8.00002C1.44144 5.86391 1.44959 5.61088 1.48808 4.76731C1.52367 3.98732 1.65398 3.56373 1.76354 3.28183C1.90866 2.90841 2.08203 2.64191 2.36197 2.36198C2.64192 2.08202 2.90841 1.90867 3.28183 1.76354C3.56373 1.65398 3.98732 1.52366 4.76731 1.48809C5.61088 1.4496 5.86391 1.44144 8.00002 1.44144ZM8.00031 10.6667C6.52753 10.6667 5.33363 9.47279 5.33363 8.00004C5.33363 6.52726 6.52753 5.33336 8.00031 5.33336C9.47306 5.33336 10.667 6.52726 10.667 8.00004C10.667 9.47279 9.47306 10.6667 8.00031 10.6667ZM8.00031 3.89192C5.73143 3.89192 3.89219 5.73117 3.89219 8.00004C3.89219 10.2689 5.73143 12.1081 8.00031 12.1081C10.2692 12.1081 12.1084 10.2689 12.1084 8.00004C12.1084 5.73117 10.2692 3.89192 8.00031 3.89192ZM12.2701 4.68968C12.8003 4.68968 13.2302 4.2599 13.2302 3.7297C13.2302 3.1995 12.8003 2.76968 12.2701 2.76968C11.74 2.76968 11.3102 3.1995 11.3102 3.7297C11.3102 4.2599 11.74 4.68968 12.2701 4.68968Z" fill="white"/>
</svg>
