<svg width="23" height="20" viewBox="0 0 23 20" fill="none" xmlns="http://www.w3.org/2000/svg">
<path d="M10.534 0.661072L4.56016 5.44014L4.55914 5.43944H1C0.447715 5.43944 0 5.88716 0 6.43944V13.5585C0 14.1108 0.447715 14.5585 1 14.5585H4.55863L4.55948 14.5593L10.534 19.3394C11.1888 19.8632 12.1587 19.397 12.1587 18.5585V1.44194C12.1587 0.603433 11.1888 0.137262 10.534 0.661072Z" fill="white"/>
<path d="M17.1442 3.15702C18.3333 3.87712 19.3141 4.89463 19.9902 6.10925C20.6662 7.32387 21.0141 8.69369 20.9996 10.0837C20.985 11.4737 20.6085 12.836 19.9072 14.0362C19.2058 15.2364 18.2039 16.2331 17 16.9281L18 18.6602C19.5048 17.7914 20.7573 16.5455 21.634 15.0452C22.5106 13.545 22.9813 11.8422 22.9995 10.1046C23.0176 8.36713 22.5828 6.65486 21.7377 5.13658C20.8927 3.6183 19.6666 2.34642 18.1803 1.44629L17.1442 3.15702Z" fill="white"/>
<path d="M14.5541 7.43384C15 7.70388 15.3678 8.08544 15.6213 8.54093C15.8748 8.99641 16.0053 9.51009 15.9998 10.0313C15.9944 10.5526 15.8532 11.0634 15.5902 11.5135C15.3272 11.9636 14.9514 12.3374 14.5 12.598L15.5 14.3301C16.2524 13.8957 16.8786 13.2727 17.317 12.5226C17.7553 11.7724 17.9906 10.9211 17.9997 10.0523C18.0088 9.18353 17.7914 8.32739 17.3689 7.56825C16.9463 6.80911 16.3333 6.17318 15.5901 5.72311L14.5541 7.43384Z" fill="white"/>
</svg>
