<svg width="40" height="19" viewBox="0 0 40 19" fill="none" xmlns="http://www.w3.org/2000/svg">
<path d="M13.96 1.704C13.976 1.752 14.032 1.864 14.128 2.04C14.224 2.216 14.272 2.376 14.272 2.52C14.272 2.696 14.16 2.808 13.936 2.856C13.904 2.936 13.84 3.008 13.744 3.072C13.648 3.12 13.528 3.144 13.384 3.144C13.288 3.144 13.144 3.112 12.952 3.048C12.872 3.016 12.144 3.056 10.768 3.168C9.408 3.28 8.336 3.384 7.552 3.48L7.24 4.152L5.968 6.96L5.68 7.488L6.52 7.392C6.92 7.344 7.44 7.424 8.08 7.632C8.736 7.824 9.208 8.016 9.496 8.208C9.928 8.48 10.28 8.736 10.552 8.976C10.824 9.216 11.056 9.512 11.248 9.864C11.456 10.312 11.608 10.704 11.704 11.04C11.8 11.376 11.832 11.736 11.8 12.12C11.8 12.28 11.744 12.6 11.632 13.08C11.536 13.544 11.432 13.88 11.32 14.088C10.968 14.712 10.552 15.28 10.072 15.792C9.624 16.352 8.936 16.84 8.008 17.256C7.496 17.512 7.152 17.672 6.976 17.736C6.816 17.8 6.568 17.864 6.232 17.928L5.392 18.12C5.168 18.248 4.944 18.328 4.72 18.36C4.496 18.392 4.224 18.408 3.904 18.408C3.808 18.408 3.696 18.4 3.568 18.384C3.456 18.384 3.32 18.392 3.16 18.408C2.936 18.424 2.648 18.368 2.296 18.24C1.944 18.112 1.696 17.976 1.552 17.832C1.392 17.608 1.232 17.288 1.072 16.872C0.928 16.44 0.872 16.152 0.904 16.008L1.192 14.016L1.456 12.984C1.424 12.904 1.544 12.464 1.816 11.664C2.104 10.848 2.256 10.408 2.272 10.344C2.336 10.072 2.432 9.784 2.56 9.48C2.704 9.176 2.8 8.968 2.848 8.856C3.152 8.04 3.392 7.424 3.568 7.008C3.76 6.592 3.856 6.384 3.856 6.384L5.2 3.336C5.024 3.208 4.88 3.04 4.768 2.832C4.672 2.624 4.624 2.416 4.624 2.208C4.592 1.936 4.752 1.704 5.104 1.512C5.52 1.48 5.816 1.464 5.992 1.464C6.168 1.464 6.312 1.472 6.424 1.488L7.024 1.44C7.152 1.472 7.24 1.488 7.288 1.488C7.384 1.488 7.504 1.464 7.648 1.416C7.936 1.368 8.368 1.328 8.944 1.296C9.52 1.248 9.952 1.224 10.24 1.224L12.568 1.032C12.76 0.999999 12.896 0.983999 12.976 0.983999C13.216 0.983999 13.4 1.04 13.528 1.152C13.656 1.264 13.752 1.376 13.816 1.488C13.896 1.6 13.944 1.672 13.96 1.704ZM5.104 9.024C4.8 9.76 4.496 10.536 4.192 11.352C3.776 12.6 3.496 13.536 3.352 14.16L2.896 16.368C3.04 16.368 3.264 16.368 3.568 16.368C3.872 16.368 4.128 16.336 4.336 16.272C5.12 16.048 5.696 15.88 6.064 15.768C6.448 15.64 6.832 15.464 7.216 15.24C7.616 15 7.984 14.696 8.32 14.328C8.704 13.88 8.992 13.472 9.184 13.104C9.376 12.736 9.52 12.304 9.616 11.808C9.632 11.76 9.64 11.68 9.64 11.568C9.64 11.44 9.616 11.272 9.568 11.064C9.52 10.84 9.48 10.648 9.448 10.488C9.352 10.28 9.264 10.144 9.184 10.08C9.104 10 8.992 9.936 8.848 9.888C8.72 9.824 8.592 9.76 8.464 9.696C8.208 9.472 7.688 9.328 6.904 9.264L5.104 9.024ZM18.4797 17.952C18.3357 17.808 18.2157 17.624 18.1197 17.4C18.0397 17.16 17.9357 16.8 17.8077 16.32C17.7757 16.224 17.7597 16.088 17.7597 15.912C17.7597 15.72 17.7597 15.584 17.7597 15.504C17.6957 15.648 17.6157 15.808 17.5197 15.984C17.4237 16.144 17.3277 16.256 17.2317 16.32C16.8637 16.688 16.4957 16.96 16.1277 17.136C15.6157 17.456 15.1757 17.616 14.8077 17.616C14.3597 17.616 13.9757 17.408 13.6557 16.992C13.1437 16.576 12.8877 16.08 12.8877 15.504C12.8877 15.424 12.9037 15.272 12.9357 15.048C12.9677 14.456 13.0477 13.888 13.1757 13.344C13.3197 12.8 13.5837 12.104 13.9677 11.256L14.6877 9.816L15.0717 9.072C15.1517 9.04 15.2797 9.024 15.4557 9.024C15.7117 9.024 15.9517 9.072 16.1757 9.168C16.3997 9.264 16.5197 9.392 16.5357 9.552C16.5837 9.616 16.6077 9.736 16.6077 9.912C16.6077 10.424 16.3917 11.104 15.9597 11.952L15.7677 12.408C15.4797 13.096 15.2717 13.632 15.1437 14.016C15.0157 14.4 14.9517 14.72 14.9517 14.976C14.9517 15.232 15.0477 15.4 15.2397 15.48C15.3197 15.528 15.4157 15.552 15.5277 15.552C15.8477 15.552 16.2317 15.304 16.6797 14.808C17.1437 14.312 17.6157 13.48 18.0957 12.312C18.3197 11.768 18.4557 11.208 18.5037 10.632C18.4717 10.456 18.5197 10.264 18.6477 10.056C18.7757 9.848 18.9437 9.68 19.1517 9.552C19.2157 9.456 19.3037 9.384 19.4157 9.336C19.5277 9.272 19.5997 9.272 19.6317 9.336L20.0157 9.312C20.0637 9.296 20.1357 9.368 20.2317 9.528C20.3437 9.688 20.4237 9.784 20.4717 9.816C20.6317 9.944 20.7117 10.2 20.7117 10.584C20.7117 11.112 20.5197 11.84 20.1357 12.768C19.8317 13.408 19.6237 13.904 19.5117 14.256C19.4157 14.592 19.3597 14.92 19.3437 15.24C19.3437 15.576 19.3677 15.84 19.4157 16.032C19.4797 16.208 19.6237 16.392 19.8477 16.584C20.1037 16.76 20.2077 17.176 20.1597 17.832C20.1277 17.944 20.0397 18.032 19.8957 18.096C19.7517 18.16 19.5757 18.192 19.3677 18.192C19.0157 18.192 18.7197 18.112 18.4797 17.952ZM23.6665 18.216C23.5385 18.136 23.3385 18.048 23.0665 17.952C22.5385 17.744 22.2105 17.584 22.0825 17.472C21.4585 16.88 21.1465 16.12 21.1465 15.192C21.1465 14.872 21.1705 14.592 21.2185 14.352C21.2665 14.096 21.2905 13.944 21.2905 13.896C21.2585 13.688 21.2905 13.496 21.3865 13.32C21.4985 13.128 21.5625 13.008 21.5785 12.96C21.9305 12.272 22.2345 11.728 22.4905 11.328C22.7465 10.928 23.0985 10.48 23.5465 9.984C23.7385 9.824 23.9065 9.704 24.0505 9.624C24.1945 9.544 24.3545 9.52 24.5305 9.552L25.0825 9.96C25.2585 10.152 25.3465 10.36 25.3465 10.584C25.3465 10.696 25.3225 10.824 25.2745 10.968C25.1625 11.304 25.0585 11.536 24.9625 11.664C24.7705 11.84 24.6025 12.04 24.4585 12.264C24.3305 12.488 24.2105 12.712 24.0985 12.936C23.9865 13.16 23.8985 13.328 23.8345 13.44C23.7865 13.552 23.6745 13.752 23.4985 14.04C23.2905 14.328 23.1545 14.576 23.0905 14.784C23.0425 15.088 23.0185 15.296 23.0185 15.408C23.0185 15.472 23.0345 15.6 23.0665 15.792C23.1625 15.84 23.3225 15.864 23.5465 15.864C23.8505 15.864 24.0425 15.824 24.1225 15.744C24.4105 15.504 24.6105 15.304 24.7225 15.144C24.8505 14.968 24.9785 14.736 25.1065 14.448C25.1865 14.24 25.2905 14.016 25.4185 13.776C25.5785 13.488 25.7225 13.08 25.8505 12.552C25.9945 12.008 26.0665 11.592 26.0665 11.304C26.0665 11.208 26.0585 11.144 26.0425 11.112L26.0185 10.656V10.08L25.8745 9.264C25.7785 8.224 25.7305 7.432 25.7305 6.888C25.7305 6.376 25.7785 5.832 25.8745 5.256C25.9225 5.032 26.0425 4.792 26.2345 4.536C26.4425 4.28 26.6345 4.072 26.8105 3.912C27.0985 3.656 27.4905 3.448 27.9865 3.288C28.4985 3.128 28.9625 3.064 29.3785 3.096L30.9385 3.048C31.1145 3.016 31.2505 2.984 31.3465 2.952C31.4425 2.92 31.6105 2.832 31.8505 2.688C32.0425 2.592 32.2105 2.544 32.3545 2.544C32.4825 2.544 32.5945 2.568 32.6905 2.616L33.3145 3.504C33.2985 3.904 33.1465 4.224 32.8585 4.464C32.5705 4.688 32.1065 4.832 31.4665 4.896C31.3865 4.896 31.2825 4.896 31.1545 4.896C31.0425 4.88 30.9545 4.88 30.8905 4.896C30.7945 4.928 30.7225 4.944 30.6745 4.944C30.5625 4.944 30.4665 4.936 30.3865 4.92C30.3065 4.888 30.2585 4.872 30.2425 4.872C30.1305 4.872 29.9865 4.888 29.8105 4.92C29.6505 4.936 29.5065 4.944 29.3785 4.944C29.2185 4.944 29.0985 4.936 29.0185 4.92C28.0745 5.208 27.6025 5.88 27.6025 6.936C27.6185 7.128 27.6425 7.304 27.6745 7.464C27.7065 7.624 27.7305 7.776 27.7465 7.92C27.8105 8.288 27.8745 8.712 27.9385 9.192C28.0025 9.656 28.0425 10.136 28.0585 10.632C28.1385 10.952 28.1785 11.312 28.1785 11.712C28.1785 12.176 28.1225 12.504 28.0105 12.696C27.9945 12.76 27.9785 12.96 27.9625 13.296C27.9465 13.616 27.8585 13.944 27.6985 14.28C27.2505 15.192 26.8265 15.936 26.4265 16.512C26.0265 17.072 25.5465 17.536 24.9865 17.904C24.7945 18.032 24.5945 18.12 24.3865 18.168C24.1945 18.216 23.9545 18.232 23.6665 18.216ZM32.4109 17.664C32.2509 17.696 32.1069 17.712 31.9789 17.712C31.7709 17.712 31.5789 17.696 31.4029 17.664C31.2269 17.616 31.1389 17.56 31.1389 17.496C31.1389 17.448 31.1309 17.416 31.1149 17.4C31.0989 17.384 31.0669 17.376 31.0189 17.376C30.9709 17.328 30.8589 17.248 30.6829 17.136C30.5229 17.008 30.3869 16.92 30.2749 16.872C30.0829 16.6 29.9869 16.304 29.9869 15.984C29.9869 15.68 30.0829 15.192 30.2749 14.52C30.2909 13.896 30.5149 13.2 30.9469 12.432C31.3949 11.648 31.9309 10.928 32.5549 10.272C33.1789 9.6 33.7389 9.12 34.2349 8.832C34.4749 8.592 34.8109 8.472 35.2429 8.472C35.5789 8.472 35.8749 8.544 36.1309 8.688C36.3389 8.816 36.5949 9.088 36.8989 9.504C37.2189 9.92 37.4589 10.296 37.6189 10.632C37.6509 10.744 37.6909 10.896 37.7389 11.088C37.8029 11.28 37.8349 11.512 37.8349 11.784L37.7869 12.456C37.5949 13.112 37.4989 13.704 37.4989 14.232C37.4669 14.456 37.4829 14.64 37.5469 14.784C37.6109 14.912 37.6989 14.976 37.8109 14.976C37.8909 14.976 37.9789 14.952 38.0749 14.904C38.1709 14.856 38.2829 14.832 38.4109 14.832C38.6189 14.832 38.7949 14.896 38.9389 15.024C39.0829 15.152 39.1549 15.312 39.1549 15.504C39.1549 15.664 39.1149 15.816 39.0349 15.96C38.8909 16.28 38.6189 16.568 38.2189 16.824C37.8349 17.08 37.4749 17.208 37.1389 17.208C36.8669 17.208 36.6029 17.064 36.3469 16.776C36.1069 16.488 35.9149 16.112 35.7709 15.648L35.6269 15.096L34.7629 15.888L34.2109 16.44C33.9549 16.696 33.8109 16.848 33.7789 16.896C33.6989 17.024 33.5549 17.144 33.3469 17.256C33.1549 17.368 32.8429 17.504 32.4109 17.664ZM33.0589 15.36C33.3469 15.2 33.5869 15 33.7789 14.76C33.9869 14.52 34.2429 14.184 34.5469 13.752C34.6109 13.656 34.6749 13.56 34.7389 13.464C34.8029 13.352 34.8829 13.24 34.9789 13.128C35.2509 12.76 35.4429 12.464 35.5549 12.24C35.6829 12.016 35.7789 11.776 35.8429 11.52C35.7789 11.312 35.6829 11.12 35.5549 10.944C35.4429 10.752 35.3389 10.648 35.2429 10.632C34.7949 10.632 34.1869 11.16 33.4189 12.216C33.3389 12.328 33.2109 12.528 33.0349 12.816C32.8749 13.104 32.7709 13.296 32.7229 13.392C32.6429 13.504 32.5309 13.776 32.3869 14.208C32.2589 14.624 32.1949 14.896 32.1949 15.024C32.1949 15.376 32.2989 15.552 32.5069 15.552C32.6669 15.552 32.8509 15.488 33.0589 15.36Z" fill="#A3B3CC"/>
</svg>
