<svg width="46" height="29" viewBox="0 0 46 29" fill="none" xmlns="http://www.w3.org/2000/svg">
<path fill-rule="evenodd" clip-rule="evenodd" d="M23.3682 24.7616C20.9879 26.8182 17.9001 28.0597 14.5261 28.0597C6.9976 28.0597 0.894531 21.8786 0.894531 14.2537C0.894531 6.6289 6.9976 0.447754 14.5261 0.447754C17.9001 0.447754 20.9879 1.68926 23.3682 3.74581C25.7486 1.68926 28.8363 0.447754 32.2103 0.447754C39.7388 0.447754 45.8419 6.6289 45.8419 14.2537C45.8419 21.8786 39.7388 28.0597 32.2103 28.0597C28.8363 28.0597 25.7486 26.8182 23.3682 24.7616Z" fill="#ED0006"/>
<path fill-rule="evenodd" clip-rule="evenodd" d="M23.3682 24.7616C26.2991 22.2294 28.1576 18.4614 28.1576 14.2537C28.1576 10.0461 26.2991 6.27808 23.3682 3.74582C25.7485 1.68926 28.8362 0.447754 32.2103 0.447754C39.7388 0.447754 45.8418 6.6289 45.8418 14.2537C45.8418 21.8786 39.7388 28.0597 32.2103 28.0597C28.8362 28.0597 25.7485 26.8182 23.3682 24.7616Z" fill="#FF6B00"/>
<path fill-rule="evenodd" clip-rule="evenodd" d="M23.3685 24.7618C26.2995 22.2295 28.1579 18.4616 28.1579 14.254C28.1579 10.0463 26.2995 6.27836 23.3685 3.74609C20.4376 6.27836 18.5791 10.0463 18.5791 14.254C18.5791 18.4616 20.4376 22.2295 23.3685 24.7618Z" fill="#FF6B00"/>
</svg>
