<svg width="24" height="24" viewBox="0 0 24 24" fill="none" xmlns="http://www.w3.org/2000/svg">
<path fill-rule="evenodd" clip-rule="evenodd" d="M9.95875 6.18385L20 2V16.2251L23.103 19.3281L21.6888 20.7423L4.41416 3.46768L5.82837 2.05347L9.95875 6.18385ZM12.0764 8.3015L17.9179 14.143C17.9455 14.1519 17.9728 14.1611 18 14.1707V5.83333L12.0764 8.3015ZM14.1572 16.0391L17.9609 19.8428C17.6592 19.9447 17.3361 20 17 20C15.3431 20 14 18.6569 14 17C14 16.6639 14.0553 16.3408 14.1572 16.0391ZM8 9.8819L10 11.8819V19C10 20.6569 8.65685 22 7 22C5.34315 22 4 20.6569 4 19C4 17.3431 5.34315 16 7 16C7.35064 16 7.68722 16.0602 8 16.1707V9.8819Z" fill="white"/>
</svg>
