<svg width="23" height="27" viewBox="0 0 23 27" fill="none" xmlns="http://www.w3.org/2000/svg">
<path fill-rule="evenodd" clip-rule="evenodd" d="M7.08816 25.8966L7.54259 22.9984L6.53028 22.9746H1.69629L5.05574 1.5874C5.06621 1.52263 5.10004 1.46251 5.14945 1.41975C5.1991 1.37698 5.26239 1.35352 5.32859 1.35352H13.4794C16.1856 1.35352 18.053 1.91879 19.0278 3.03467C19.4849 3.55815 19.776 4.10534 19.917 4.70727C20.0647 5.33902 20.0671 6.09369 19.923 7.01431L19.9126 7.08127V7.67123L20.3697 7.93126C20.7545 8.1363 21.0605 8.37091 21.2951 8.6395C21.686 9.08722 21.9389 9.65616 22.0458 10.3304C22.1563 11.024 22.1198 11.8496 21.9389 12.7841C21.7303 13.8589 21.3932 14.7952 20.9378 15.5611C20.5191 16.2669 19.9856 16.8524 19.352 17.306C18.7472 17.7371 18.0286 18.0644 17.2162 18.2738C16.4288 18.4796 15.5311 18.5835 14.5465 18.5835H13.9122C13.4587 18.5835 13.0182 18.7474 12.6723 19.0414C12.3255 19.3416 12.0962 19.7516 12.0258 20.2001L11.9779 20.4611L11.1749 25.5696L11.1386 25.757C11.1289 25.8164 11.1123 25.846 11.088 25.866C11.0663 25.8843 11.0352 25.8966 11.0048 25.8966H7.08816Z" fill="#28356A"/>
<path fill-rule="evenodd" clip-rule="evenodd" d="M20.8028 7.14941C20.7787 7.30558 20.7507 7.46516 20.7195 7.62915C19.6446 13.1704 15.9671 15.0847 11.2704 15.0847H8.87892C8.30449 15.0847 7.82036 15.5034 7.73103 16.0723L6.15986 26.0788C6.10169 26.4525 6.38842 26.789 6.76375 26.789H11.0053C11.5074 26.789 11.9341 26.4227 12.0132 25.9254L12.0548 25.7091L12.8535 20.6206L12.9048 20.3415C12.9829 19.8425 13.4106 19.4759 13.9127 19.4759H14.5471C18.6564 19.4759 21.8735 17.8009 22.8138 12.9532C23.2064 10.9282 23.0031 9.23723 21.9638 8.04803C21.6493 7.68951 21.2591 7.39185 20.8028 7.14941Z" fill="#298FC2"/>
<path fill-rule="evenodd" clip-rule="evenodd" d="M19.6779 6.69937C19.5136 6.65122 19.3442 6.60772 19.1704 6.56838C18.9957 6.53001 18.8168 6.49604 18.6325 6.46622C17.9877 6.36162 17.2811 6.31201 16.5244 6.31201H10.1358C9.9783 6.31201 9.82885 6.34769 9.69522 6.41221C9.40046 6.55445 9.18164 6.83452 9.12858 7.17739L7.76941 15.8205L7.73047 16.0724C7.8198 15.5035 8.30393 15.0849 8.87836 15.0849H11.2698C15.9665 15.0849 19.6441 13.1696 20.7189 7.62927C20.7511 7.46528 20.7781 7.3057 20.8022 7.14953C20.5303 7.00461 20.2358 6.88071 19.9186 6.77513C19.8403 6.74898 19.7595 6.72381 19.6779 6.69937Z" fill="#22284F"/>
<path fill-rule="evenodd" clip-rule="evenodd" d="M9.12867 7.17725C9.18173 6.83437 9.40055 6.5543 9.69531 6.41304C9.82991 6.34828 9.97839 6.3126 10.1359 6.3126H16.5245C17.2812 6.3126 17.9878 6.36245 18.6326 6.46705C18.8168 6.49662 18.9957 6.53084 19.1705 6.5692C19.3443 6.60831 19.5137 6.65205 19.678 6.69995C19.7595 6.72439 19.8404 6.74981 19.9195 6.77498C20.2366 6.88056 20.5314 7.00544 20.8033 7.14938C21.1231 5.10165 20.8006 3.70741 19.698 2.44489C18.4822 1.0548 16.2881 0.459961 13.4805 0.459961H5.32939C4.75593 0.459961 4.26669 0.8786 4.17809 1.44852L0.783103 23.0557C0.716167 23.4831 1.04452 23.8688 1.47388 23.8688H6.506L9.12867 7.17725Z" fill="#28356A"/>
</svg>
