<svg width="16" height="20" viewBox="0 0 16 20" fill="none" xmlns="http://www.w3.org/2000/svg">
<path d="M14 19.9999H2C1.46957 19.9999 0.960859 19.7892 0.585786 19.4141C0.210714 19.039 0 18.5303 0 17.9999V1.9999C0 1.46947 0.210714 0.960763 0.585786 0.58569C0.960859 0.210617 1.46957 -9.66382e-05 2 -9.66382e-05H9C9.00896 -0.00126987 9.01804 -0.00126987 9.027 -9.66382e-05H9.033C9.04245 0.00285504 9.05216 0.00486487 9.062 0.0059034C9.15 0.0119034 9.237 0.0289033 9.321 0.0569033H9.363C9.38146 0.0698222 9.39884 0.0842017 9.415 0.0999033C9.52393 0.148346 9.6232 0.216105 9.708 0.299903L15.708 6.2999C15.7918 6.38469 15.8596 6.48396 15.908 6.5929C15.9167 6.61453 15.9244 6.63655 15.931 6.6589L15.941 6.6869C15.969 6.7699 15.985 6.8569 15.99 6.9449C15.9909 6.95486 15.9932 6.96464 15.997 6.9739V6.9799C15.9986 6.98647 15.9996 6.99316 16 6.9999V17.9999C16 18.5303 15.7893 19.039 15.4142 19.4141C15.0391 19.7892 14.5304 19.9999 14 19.9999ZM10.424 11.9999V16.9999H11.364V14.9599H12.824V14.1219H11.364V12.8409H13V11.9999H10.424ZM6.724 11.9999V16.9999H7.93C8.436 17.0249 8.926 16.8189 9.262 16.4399C9.6069 15.9998 9.77967 15.4491 9.748 14.8909V14.0809C9.77126 13.5285 9.59364 12.9864 9.248 12.5549C8.923 12.1849 8.448 11.9809 7.955 11.9999H6.724ZM3 11.9999V16.9999H3.94V15.2409H4.566C4.984 15.2639 5.392 15.1089 5.69 14.8149C5.974 14.4969 6.121 14.0809 6.1 13.6549C6.11856 13.2191 5.97135 12.7925 5.688 12.4609C5.54958 12.3074 5.37889 12.1865 5.18818 12.1068C4.99747 12.027 4.79148 11.9906 4.585 11.9999H3ZM9 1.9999V6.9999H14L9 1.9999ZM7.946 16.1619H7.664V12.8409H8.006C8.12552 12.8339 8.24489 12.8569 8.3532 12.9079C8.46152 12.9589 8.55531 13.0363 8.626 13.1329C8.773 13.4359 8.836 13.7729 8.808 14.1089V14.9779C8.83 15.2979 8.761 15.6179 8.608 15.8989C8.52726 15.9931 8.42481 16.0663 8.30948 16.1122C8.19415 16.158 8.0694 16.175 7.946 16.1619ZM4.585 14.3999H3.939V12.8409H4.594C4.67444 12.8418 4.75334 12.8631 4.82331 12.9028C4.89327 12.9425 4.952 12.9993 4.994 13.0679C5.102 13.2469 5.154 13.4529 5.144 13.6619C5.15654 13.8564 5.1049 14.0496 4.997 14.2119C4.94797 14.2735 4.8851 14.3226 4.81351 14.3552C4.74191 14.3879 4.66362 14.4032 4.585 14.3999Z" fill="#00CAD7"/>
</svg>
