<svg width="16" height="16" viewBox="0 0 16 16" fill="none" xmlns="http://www.w3.org/2000/svg">
<circle cx="8" cy="8" r="7" fill="white" stroke="white" stroke-width="2"/>
<path fill-rule="evenodd" clip-rule="evenodd" d="M10.1158 9.11116L9.40976 10.0274C9.29153 10.008 9.12884 9.96795 8.92807 9.88702C8.45512 9.69638 7.933 9.33399 7.37587 8.75309C6.74701 8.15183 6.35257 7.57729 6.13394 7.04324C6.05981 6.86219 6.0124 6.70063 5.98604 6.56156L6.88264 5.88169C7.10681 5.7075 7.14963 5.38598 6.97613 5.1593L5.47398 3.19683C5.29024 2.95679 4.94674 2.9312 4.73242 3.14822C4.7209 3.15971 3.83678 4.08906 3.79565 4.1349C3.37833 4.60002 3.13069 4.91865 3.0592 5.13292C2.74651 6.0701 3.67876 8.38769 5.70893 10.4159C7.7314 12.4365 9.89444 13.2547 10.8648 12.9316C11.0792 12.8602 11.3981 12.6128 11.8636 12.1959C11.9095 12.1548 12.8398 11.2715 12.853 11.2583C13.0675 11.0462 13.0443 10.7031 12.8026 10.5185L10.8383 9.01776C10.6128 8.84551 10.2904 8.88691 10.1158 9.11116Z" fill="#140D4B"/>
</svg>
