<svg width="13" height="22" viewBox="0 0 13 22" fill="none" xmlns="http://www.w3.org/2000/svg">
<path d="M6.244 15.288C5.88933 15.288 5.60933 15.176 5.404 14.952C5.21733 14.7093 5.124 14.392 5.124 14C5.124 13.1413 5.28267 12.3387 5.6 11.592C5.936 10.8453 6.496 10.0333 7.28 9.15601C7.87733 8.50268 8.288 7.94268 8.512 7.47601C8.75467 7.00935 8.876 6.51468 8.876 5.99201C8.876 5.37601 8.652 4.89068 8.204 4.53601C7.756 4.18134 7.12133 4.00401 6.3 4.00401C5.55333 4.00401 4.872 4.10668 4.256 4.31201C3.65867 4.49868 3.052 4.76934 2.436 5.12401C1.932 5.42268 1.484 5.52534 1.092 5.43201C0.718666 5.32001 0.447999 5.09601 0.279999 4.76001C0.111999 4.42401 0.0839994 4.05068 0.195999 3.64001C0.307999 3.22934 0.606666 2.86534 1.092 2.54801C1.85733 2.04401 2.73467 1.66134 3.724 1.40001C4.71333 1.12001 5.64667 0.980011 6.524 0.980011C7.7 0.980011 8.72667 1.17601 9.604 1.56801C10.5 1.96001 11.1907 2.50134 11.676 3.19201C12.18 3.88268 12.432 4.69468 12.432 5.62801C12.432 6.48668 12.236 7.28934 11.844 8.03601C11.4707 8.78268 10.7987 9.59468 9.828 10.472C8.95067 11.2747 8.344 11.9653 8.008 12.544C7.672 13.1227 7.45733 13.7387 7.364 14.392C7.34533 14.6533 7.23333 14.868 7.028 15.036C6.84133 15.204 6.58 15.288 6.244 15.288ZM6.188 21.14C5.55333 21.14 5.04 20.944 4.648 20.552C4.27467 20.16 4.088 19.656 4.088 19.04C4.088 18.4427 4.27467 17.9573 4.648 17.584C5.04 17.192 5.55333 16.996 6.188 16.996C6.84133 16.996 7.34533 17.192 7.7 17.584C8.07333 17.9573 8.26 18.4427 8.26 19.04C8.26 19.656 8.07333 20.16 7.7 20.552C7.34533 20.944 6.84133 21.14 6.188 21.14Z" fill="black"/>
</svg>
