<svg width="23" height="22" viewBox="0 0 23 22" fill="none" xmlns="http://www.w3.org/2000/svg">
<path d="M9.69119 2.59591C9.84719 2.716 9.84719 2.95126 9.69119 3.07135L6.733 5.34857C6.53573 5.50043 6.25 5.3598 6.25 5.11085V3.99493L6.23826 3.9964C6.21326 3.99943 6.18815 4.00184 6.16298 4.00361C6.12278 4.00644 6.08242 4.00766 6.04206 4.00724C5.46344 4.00115 4.88629 4.12086 4.35195 4.36297C3.51044 4.74425 2.82716 5.40553 2.41854 6.23412C2.00993 7.06271 1.90126 8.00735 2.11105 8.90708C2.32083 9.80681 2.8361 10.606 3.56905 11.1684C4.30201 11.7308 5.20729 12.0217 6.13066 11.9914C7.05404 11.9612 7.93836 11.6118 8.63296 11.0026C9.32756 10.3935 9.78946 9.56231 9.93995 8.65079C10.0355 8.07199 10.0018 7.48352 9.84612 6.9262C9.83527 6.88732 9.826 6.84802 9.81833 6.80846C9.81353 6.78369 9.80935 6.75881 9.80581 6.73388C9.79894 6.68558 9.79444 6.63704 9.79233 6.58856C9.77331 6.15316 9.94656 5.72176 10.3272 5.50198C10.8071 5.22491 11.4297 5.38774 11.623 5.90706C11.9859 6.88186 12.0912 7.94011 11.9199 8.97767C11.8524 9.38626 11.7433 9.7841 11.5957 10.1655C9.67099 10.6271 8.10703 12.0163 7.40301 13.834C7.00976 13.9285 6.60559 13.9837 6.19632 13.9971C4.80893 14.0425 3.44872 13.6055 2.34744 12.7604C1.24616 11.9154 0.471957 10.7146 0.156745 9.36276C-0.158467 8.01089 0.00481534 6.59154 0.61877 5.34657C1.23273 4.10159 2.25937 3.10801 3.52376 2.53512C4.38413 2.14529 5.31835 1.96666 6.25 2.0055L6.25 0.556412C6.25 0.30746 6.53573 0.166831 6.733 0.31869L9.69119 2.59591Z" fill="white"/>
<path d="M13.02 12.9056C13.0073 12.9157 13 12.931 13 12.9471C13 12.9765 12.9762 13.0003 12.9468 13.0003H11C10.4477 13.0003 10 13.448 10 14.0003V18.0003C10 18.5526 10.4477 19.0003 11 19.0003H12.7477C12.9747 19.0003 13.195 19.0776 13.3723 19.2194L16.3753 21.6218C17.0301 22.1456 18 21.6794 18 20.8409V11.0022C18 10.1637 17.0301 9.69749 16.3753 10.2213L13.02 12.9056Z" fill="white"/>
<path d="M22.4536 18.0184C22.1029 18.6185 21.6019 19.1169 21 19.4644L20 17.7323C20.301 17.5586 20.5515 17.3094 20.7268 17.0094C20.9021 16.7093 20.9963 16.3687 20.9999 16.0212C21.0035 15.6737 20.9166 15.3313 20.7475 15.0276C20.5785 14.724 20.3333 14.4696 20.0361 14.2896L21.0721 12.5788C21.6666 12.9389 22.1571 13.4476 22.4951 14.055C22.8331 14.6623 23.0071 15.3472 22.9998 16.0422C22.9925 16.7372 22.8043 17.4183 22.4536 18.0184Z" fill="white"/>
</svg>
