<svg width="28" height="26" viewBox="0 0 28 26" fill="none" xmlns="http://www.w3.org/2000/svg">
<path d="M28.0004 10.5582C27.856 9.69219 27.0622 9.11483 25.9796 9.11483C25.6188 9.11483 25.3301 9.11483 24.9692 9.11483C24.3197 9.04266 24.1754 9.25918 24.1754 9.76437C24.1754 12.2903 24.1754 14.7441 24.1754 17.27C24.1754 18.569 22.8763 19.9403 21.3608 20.2289C16.5976 21.3115 11.8344 22.3218 7.07122 23.4044C6.56603 23.5487 5.98868 23.5487 5.41133 23.5487C5.19482 23.5487 4.83398 23.4044 4.76181 23.1879C4.68964 23.0435 4.90614 22.7549 5.05048 22.6105C5.26699 22.4662 5.55567 22.3218 5.84435 22.1775C6.71038 21.8888 7.64857 21.6002 8.5146 21.3115C12.0509 20.1568 15.5872 19.002 19.1235 17.7752C20.7112 17.27 21.5773 16.1874 21.5773 14.8162C21.6494 10.4861 21.5773 6.08372 21.5773 1.75355C21.5773 1.03186 21.2164 0.454506 20.4226 0.165829C19.4844 -0.195019 18.6183 0.0936548 17.8245 0.454502C12.7726 2.83609 7.79291 5.21769 2.74105 7.59928C1.29766 8.32098 0.431641 9.33134 0.431641 10.7747C0.431641 14.8884 0.431641 19.0021 0.431641 23.1157C0.431641 23.3322 0.431623 23.5487 0.503792 23.6931C1.00898 25.0643 2.30805 25.9303 4.04011 25.9303C7.57642 25.9303 11.1127 25.9303 14.649 25.9303C18.1853 25.9303 21.6494 25.9303 25.1857 25.9303C25.9796 25.9303 26.6291 25.786 27.2065 25.2808C27.9282 24.7034 27.9282 23.9096 27.9282 23.1879C27.9282 19.6373 28.0004 10.5582 28.0004 10.5582ZM13.2778 9.25918C13.6386 8.32098 14.4325 7.74362 15.5872 7.59928C16.3811 7.52711 17.0306 7.96013 17.1749 8.68182C17.3193 9.76437 16.0202 11.0634 14.649 11.0634C13.5665 11.0634 12.9169 10.2696 13.2778 9.25918Z" fill="#FF6B00"/>
</svg>
